<?xml version="1.0" encoding="utf-8"?>
<!-- Generator: Adobe Illustrator 21.0.0, SVG Export Plug-In . SVG Version: 6.00 Build 0)  -->
<svg version="1.1" id="Layer_1" xmlns="http://www.w3.org/2000/svg" xmlns:xlink="http://www.w3.org/1999/xlink" x="0px" y="0px"
	 viewBox="0 0 98 60" style="enable-background:new 0 0 98 60;" xml:space="preserve">
<style type="text/css">
	.st0{fill:#010101;}
	.st1{fill:#FFFFFF;}
</style>
<path class="st0" d="M49,60c26.868,0,48.648-13.431,48.648-30C97.648,13.432,75.868,0,49,0C22.132,0,0.352,13.432,0.352,30
	C0.352,46.569,22.132,60,49,60"/>
<path class="st1" d="M18.215,41.81c1.935,0,3.68-0.603,5.424-1.428v-5.551c-1.3,1.49-3.299,2.537-5.297,2.537
	c-4.346,0-7.01-4.028-7.01-8.057c0-4.124,2.569-8.249,7.042-8.249c1.998,0,3.965,0.952,5.265,2.538v-5.583
	c-1.618-0.888-3.457-1.395-5.329-1.395c-7.011,0-11.801,5.996-11.801,12.784C6.509,36.004,11.49,41.81,18.215,41.81 M41.861,32.352
	h-5.757l1.307-4.319c-0.001,0-0.003,0-0.005,0.001l1.333-4.401h0.005l0.035-0.118L41.861,32.352z M49.905,41.175l-9.072-24.553
	h-3.617L27.89,41.175h4.916l1.505-3.86c1.072,1.26,2.68,2.061,4.479,2.061c1.898,0,3.58-0.894,4.648-2.274l1.486,4.073H49.905z
	 M60.405,41.81L69.7,17.257h-5.012l-5.33,16.114h-0.063l-5.742-16.114h-5.012l9.136,24.553H60.405z M82.23,32.325h-5.678
	l2.633-8.692h0.064L82.23,32.325z M90.351,41.175l-9.073-24.553h-3.616l-9.326,24.553h4.916l1.967-5.044h8.311l1.84,5.044H90.351z"
	/>
</svg>
